<svg xmlns="http://www.w3.org/2000/svg" viewBox="0 0 151.05 31.18"><defs><style>.cls-1{fill:#fff1e2}</style></defs><g id="Layer_2" data-name="Layer 2"><g id="Layer_2-2" data-name="Layer 2"><path class="cls-1" d="M136.71 14.69l-3.52 1.83v10.87h-3.59V3.53L122.37 0l-7.17 3.53v27.56h35.85zm-15.05 15.23h-5.4V4.17l5.4-2.64zm14.93-2.59h-2.35V17l2.35-1.27zM.8 4.44h3.61v13.13h8.18v3.28H.8zM15.24 4.44h3.62v16.41h-3.62zM22.73 4.44h3.33l7.69 10.1V4.44h3.56v16.41h-3.07l-8-10.43v10.43h-3.51zM41 4.44h12.38v3.21h-8.8V11h7.74v3.21h-7.74v3.45h8.92v3.21H41zM63.3 4.44h3.61v13.13h8.19v3.28H63.3zM83.21 4.32h3.33l7 16.53H89.8l-1.5-3.68h-6.94l-1.5 3.68h-3.69zM87 14l-2.17-5.34L82.65 14zM95.88 4.44h7.6a5.82 5.82 0 014.29 1.45 3.78 3.78 0 011.12 2.79v.05a4.22 4.22 0 01-.17 1.24 4.16 4.16 0 01-.47 1 3.58 3.58 0 01-.68.77 4.57 4.57 0 01-.82.56 5.54 5.54 0 012.25 1.44 3.75 3.75 0 01.82 2.56v.05a4.24 4.24 0 01-.44 2 3.89 3.89 0 01-1.24 1.41 5.93 5.93 0 01-1.94.84 10.4 10.4 0 01-2.52.28h-7.8zm9.45 4.85a1.45 1.45 0 00-.61-1.29 3 3 0 00-1.72-.4h-3.61v3.47h3.33a3.7 3.7 0 001.9-.41 1.41 1.41 0 00.71-1.32zm.91 6.57a1.54 1.54 0 00-.63-1.3 3.4 3.4 0 00-2-.48h-4.22v3.61h4.29a3.46 3.46 0 001.88-.44 1.5 1.5 0 00.68-1.35zM2.78 24.71h1l2.78 6.36H5.41l-.64-1.52h-3l-.65 1.52H0zm1.59 3.86L3.27 26l-1.08 2.57zM13.26 24.76h2.81a2.91 2.91 0 011.06.17 2.11 2.11 0 01.77.46 1.8 1.8 0 01.38.6 2.1 2.1 0 01.14.76A1.82 1.82 0 0118 28a2.22 2.22 0 01-1.08.66l1.71 2.39h-1.32l-1.55-2.2h-1.39v2.2h-1.11zM16 27.89a1.46 1.46 0 001-.29.91.91 0 00.35-.77A.93.93 0 0017 26a1.6 1.6 0 00-1-.26h-1.63v2.12zM28.31 31.18a3.18 3.18 0 01-2.3-.94 3.11 3.11 0 01-.67-1 3.43 3.43 0 01-.25-1.28 3.3 3.3 0 01.24-1.27 3.18 3.18 0 01.68-1 3 3 0 011-.7 3.34 3.34 0 011.32-.26 3.87 3.87 0 01.79.07 3.56 3.56 0 01.65.2 2.91 2.91 0 01.55.31 4.54 4.54 0 01.48.39l-.71.83a3.27 3.27 0 00-.8-.57 2.07 2.07 0 00-1-.22 1.9 1.9 0 00-.83.18 1.76 1.76 0 00-.66.48 2.11 2.11 0 00-.43.71 2.27 2.27 0 00-.16.86 2.49 2.49 0 00.15.87 2 2 0 001.1 1.2 2.05 2.05 0 00.83.17 2.13 2.13 0 001-.21 4.32 4.32 0 00.83-.6l.71.72a3.74 3.74 0 01-.51.47 4.15 4.15 0 01-.57.35 2.85 2.85 0 01-.68.22 3.34 3.34 0 01-.76.02zM37.62 24.76h1.11v2.62h3v-2.62h1.11v6.31h-1.09v-2.66h-3v2.66h-1.13zM50.14 24.76h1.1v6.31h-1.1zM60.08 25.79h-2v-1h5.12v1h-2v5.28h-1.12zM70 24.76h4.68v1h-3.61v1.64h3.17v1h-3.17v1.7h3.62v1H70zM84.53 31.18a3.18 3.18 0 01-1.28-.25 3.1 3.1 0 01-1.69-1.72 3.43 3.43 0 01-.24-1.28 3.3 3.3 0 01.24-1.27 3.15 3.15 0 01.67-1 3.08 3.08 0 011-.7 3.26 3.26 0 011.31-.26 3.81 3.81 0 01.79.07 3.94 3.94 0 01.66.2 3.26 3.26 0 01.55.31 4.54 4.54 0 01.48.39l-.72.83a3.27 3.27 0 00-.8-.57 2 2 0 00-1-.22 2 2 0 00-1.5.66 2.11 2.11 0 00-.43.71 2.27 2.27 0 00-.16.86 2.28 2.28 0 00.16.87 2 2 0 00.43.72 2 2 0 001.5.65 2.19 2.19 0 001-.21 4.27 4.27 0 00.82-.6l.71.72a3.74 3.74 0 01-.51.47 4.15 4.15 0 01-.57.35 2.93 2.93 0 01-.67.22 3.48 3.48 0 01-.75.05zM95.4 25.79h-2v-1h5.12v1h-2v5.28H95.4zM107.36 31.16a4.12 4.12 0 01-1.4-.24 3.84 3.84 0 01-1.23-.77l.66-.79a4 4 0 00.94.61 2.57 2.57 0 001.06.21 1.32 1.32 0 00.81-.22.67.67 0 00.31-.57.67.67 0 00-.06-.3.63.63 0 00-.22-.25 1.71 1.71 0 00-.43-.22 6.26 6.26 0 00-.72-.2 7 7 0 01-.9-.26 2.57 2.57 0 01-.66-.36 1.55 1.55 0 01-.4-.52 1.84 1.84 0 01-.14-.74 1.64 1.64 0 01.16-.74 1.71 1.71 0 01.45-.58 2 2 0 01.68-.38 2.63 2.63 0 01.86-.13 3.72 3.72 0 011.25.2 3.92 3.92 0 011.05.59l-.6.84a3.71 3.71 0 00-.86-.48 2.3 2.3 0 00-.85-.17 1.15 1.15 0 00-.76.22.65.65 0 00-.27.53.79.79 0 00.06.32.57.57 0 00.24.25 1.53 1.53 0 00.46.21 6.5 6.5 0 00.74.21 6.12 6.12 0 01.88.28 2.62 2.62 0 01.64.37 1.49 1.49 0 01.38.52 1.75 1.75 0 01.13.68 1.83 1.83 0 01-.17.79 1.72 1.72 0 01-.47.6 2.08 2.08 0 01-.71.37 3.28 3.28 0 01-.91.12z"/></g></g></svg>