<svg xmlns="http://www.w3.org/2000/svg" viewBox="0 0 160.88 94.08"><defs><style>.cls-1{fill:#d1d3d4;opacity:.4}</style></defs><g id="Layer_2" data-name="Layer 2"><g id="Layer_1-2" data-name="Layer 1"><path class="cls-1" d="M107.82 21l.39.61a6.33 6.33 0 00-.39-.61zM104.05 94.08a4.66 4.66 0 001.25-.19h-2.51a4.74 4.74 0 001.26.19zM27.71 23.85c.56-1 1.14-1.94 1.77-2.88a4.72 4.72 0 00-1.77 2.88zM32.49 93.89h-2.64a4.92 4.92 0 002.64 0z"/><path class="cls-1" d="M127.28 26.9a33.3 33.3 0 00-14.68 3.38 47.26 47.26 0 00-4.39-8.66 4.73 4.73 0 01-6.43 6.43L70.29 57.34a4.66 4.66 0 01.44 2 4.52 4.52 0 01-.3 1.61l31 24.43a4.7 4.7 0 012.62-.79 4.75 4.75 0 011.25 9.33h18.38a35.55 35.55 0 003.6.19 34.91 34.91 0 003.56-.19 33.59 33.59 0 00-3.56-67z"/><path d="M26.63 90.77a4.75 4.75 0 013.05-6V66.94A4.75 4.75 0 0126.62 61a4.67 4.67 0 013.17-3.14A4.79 4.79 0 0134.47 59l27.09-14.22a4.9 4.9 0 01-.08-.77 4.73 4.73 0 01.09-.93l-26-14.82a4.73 4.73 0 01-4.59 1 4.68 4.68 0 01-3.15-3.18 5 5 0 01-.1-2.25A46.85 46.85 0 0021.59 47c0 1.3.05 2.59.16 3.86h-.16a21.6 21.6 0 000 43.19 20.38 20.38 0 002.83-.19h5.43-.2a4.64 4.64 0 01-3.02-3.09z" fill="#808285" opacity=".4"/><path d="M99.29 89.32a4.52 4.52 0 01.3-1.61l-31-24.43a4.7 4.7 0 01-2.62.79 4.76 4.76 0 010-9.52 4.68 4.68 0 012.27.6l31.49-29.29a4.66 4.66 0 01-.44-2 4.75 4.75 0 018.53-2.86 47 47 0 00-78.34 0 4.71 4.71 0 017 1.44 4.6 4.6 0 01.55 3.25l26 14.82a4.75 4.75 0 017.7 5 4.63 4.63 0 01-3.14 3.06 4.76 4.76 0 01-4.69-1.14L35.86 61.68a4.79 4.79 0 01.07.77 4.74 4.74 0 01-3.26 4.49v17.88a4.75 4.75 0 01-.18 9.07h70.3a4.75 4.75 0 01-3.5-4.57z" fill="#a7a9ac" opacity=".4"/></g></g></svg>